<?xml version="1.0" encoding="UTF-8"?>
<!DOCTYPE svg PUBLIC "-//W3C//DTD SVG 1.1//EN" "http://www.w3.org/Graphics/SVG/1.1/DTD/svg11.dtd">
<!-- Creator: CorelDRAW X8 -->
<svg xmlns="http://www.w3.org/2000/svg" xml:space="preserve" width="154.878mm" height="50.3449mm" version="1.1" style="shape-rendering:geometricPrecision; text-rendering:geometricPrecision; image-rendering:optimizeQuality; fill-rule:evenodd; clip-rule:evenodd"
viewBox="0 0 15623 5078"
 xmlns:xlink="http://www.w3.org/1999/xlink">
 <defs>
  <style type="text/css">
   <![CDATA[
    .str5 {stroke:#FEFEFE;stroke-width:608.13}
    .str2 {stroke:#FEFEFE;stroke-width:608.13}
    .str1 {stroke:#FEFEFE;stroke-width:608.13}
    .str3 {stroke:#FEFEFE;stroke-width:608.13}
    .str7 {stroke:#E31E24;stroke-width:270.288}
    .str4 {stroke:#E31E24;stroke-width:405.417}
    .str6 {stroke:#E31E24;stroke-width:405.417}
    .str0 {stroke:#E31E24;stroke-width:405.417}
    .fil0 {fill:none}
    .fil2 {fill:#FEFEFE}
    .fil1 {fill:#E31E24}
    .fil3 {fill:#E31E24;fill-rule:nonzero}
   ]]>
  </style>
 </defs>
 <g id="Layer_x0020_1">
  <metadata id="CorelCorpID_0Corel-Layer"/>
  <g id="_1734023051008">
   <g>
    <path class="fil0 str0" d="M7033 1808l582 0c2291,0 2719,895 3454,895 494,0 894,-401 894,-895 0,-494 -400,-894 -894,-894 -321,0 -545,112 -685,281 -197,239 -338,522 -539,758 -205,242 -419,715 -1048,715 -494,0 -894,-400 -894,-894 0,-494 400,-895 894,-895 829,7 1127,929 2951,929l999 0 1513 0"/>
    <path class="fil0 str1" d="M8942 2659c519,-66 715,-483 903,-706 17,-19 33,-39 49,-59"/>
    <path class="fil0 str2" d="M10947 1738c-1138,-215 -1461,-853 -2150,-859 -33,0 -65,2 -97,6"/>
    <path class="fil0 str3" d="M8416 1849c-239,-26 -504,-41 -801,-41l-513 0"/>
    <path class="fil0 str4" d="M8504 1860c-262,-33 -555,-52 -889,-52l-582 0"/>
    <path class="fil0 str5" d="M11838 1352c80,134 125,290 125,456 0,150 -37,291 -101,415"/>
    <path class="fil0 str6" d="M11750 1229c133,156 213,358 213,579 0,216 -76,415 -204,569"/>
    <path class="fil0 str4" d="M11196 1777c-1344,-162 -1662,-892 -2399,-898 -59,0 -117,6 -173,17"/>
    <path class="fil0 str4" d="M8878 2666c567,-39 771,-481 967,-713 25,-28 48,-58 71,-88"/>
    <path class="fil1" d="M5252 382c-208,-102 -456,-142 -699,-176 -525,-72 -74,156 -798,50 -536,-79 -1083,-137 -1672,-200 -455,-49 -1343,-138 -1633,116 -87,77 -124,182 -165,311 -105,334 -260,252 -285,593l0 197c10,112 42,162 102,253 314,0 376,-302 363,-504 -11,-172 5,-574 209,-661 453,-192 3219,161 3437,254 110,47 49,54 155,83 110,31 238,20 424,49 534,179 1083,424 1203,781 49,145 36,339 39,372 -11,214 -62,245 -103,300 -418,567 -803,596 -1156,701 -27,4 -56,8 -86,12 -162,19 -278,-24 -385,57 -79,62 -10,108 -296,147 -661,90 -2678,403 -3198,220 -453,-161 -21,-1078 -538,-1199 -98,66 -149,160 -170,259l0 255c16,87 44,160 68,202 89,150 123,46 194,282 45,149 68,247 160,350 280,315 1223,186 1720,148 629,-48 1449,-212 1929,-253 248,-21 160,121 643,33 47,-9 103,-21 163,-36l0 0c154,-38 335,-93 454,-148 200,-84 412,-208 608,-422 99,-73 224,-262 306,-442l0 -1 0 0c51,-112 86,-274 87,-349l713 0 0 -414c-235,0 -473,-2 -713,-2 -5,-243 -209,-574 -356,-718 -232,-272 -488,-412 -724,-500z"/>
    <circle class="fil2 str7" cx="14625" cy="1808" r="863"/>
   </g>
   <path class="fil3" d="M6671 4617l234 31c-36,136 -104,242 -204,318 -100,75 -227,112 -382,112 -194,0 -349,-60 -463,-180 -114,-120 -171,-288 -171,-505 0,-224 57,-398 173,-522 115,-124 265,-186 449,-186 178,0 324,61 437,182 112,122 169,292 169,513 0,13 0,33 -1,60l-996 0c9,146 50,259 125,336 74,78 167,117 278,117 83,0 154,-22 213,-66 58,-43 105,-113 139,-210zm-742 -363l745 0c-10,-112 -39,-196 -86,-253 -72,-87 -165,-131 -280,-131 -104,0 -191,35 -262,105 -70,69 -109,162 -117,279z"/>
   <path id="1" class="fil3" d="M7192 5050l0 -1337 203 0 0 189c42,-65 98,-118 167,-157 70,-40 149,-60 238,-60 98,0 179,21 243,61 63,42 107,99 133,173 106,-156 244,-234 414,-234 133,0 236,37 307,110 72,73 108,186 108,339l0 916 -227 0 0 -841c0,-90 -7,-156 -22,-196 -15,-40 -41,-71 -80,-96 -39,-24 -84,-36 -136,-36 -95,0 -173,31 -235,93 -62,63 -93,163 -93,300l0 776 -227 0 0 -867c0,-101 -18,-176 -55,-227 -37,-50 -98,-75 -182,-75 -63,0 -122,17 -176,50 -54,33 -93,82 -118,147 -24,65 -36,158 -36,279l0 693 -226 0z"/>
   <path id="2" class="fil3" d="M9829 4848l31 200c-64,13 -121,20 -170,20 -82,0 -146,-13 -191,-39 -46,-26 -77,-60 -96,-103 -18,-42 -27,-131 -27,-267l0 -770 -168 0 0 -176 168 0 0 -330 226 -136 0 466 227 0 0 176 -227 0 0 782c0,65 4,107 12,125 8,19 21,33 39,45 18,10 44,16 77,16 25,0 58,-3 99,-9z"/>
   <path id="3" class="fil3" d="M10926 5050l0 -199c-104,152 -245,227 -423,227 -79,0 -152,-15 -220,-45 -68,-30 -119,-68 -152,-113 -33,-46 -56,-102 -70,-168 -9,-45 -13,-115 -13,-211l0 -828 226 0 0 740c0,118 5,198 14,239 14,59 44,106 91,140 45,33 102,51 170,51 68,0 131,-18 191,-52 59,-35 101,-83 126,-142 24,-60 37,-147 37,-261l0 -715 226 0 0 1337 -203 0z"/>
   <path id="4" class="fil3" d="M11977 4848l31 200c-64,13 -121,20 -170,20 -82,0 -146,-13 -191,-39 -45,-26 -77,-60 -96,-103 -18,-42 -27,-131 -27,-267l0 -770 -168 0 0 -176 168 0 0 -330 226 -136 0 466 227 0 0 176 -227 0 0 782c0,65 4,107 12,125 8,19 21,33 39,45 18,10 44,16 77,16 25,0 58,-3 99,-9z"/>
   <path id="5" class="fil3" d="M12116 4382c0,-247 68,-430 206,-549 115,-99 255,-148 420,-148 184,0 334,60 451,180 116,120 174,286 174,498 0,172 -25,306 -77,405 -51,98 -126,174 -225,229 -98,54 -206,81 -323,81 -187,0 -338,-59 -453,-179 -116,-120 -173,-292 -173,-517zm232 0c0,171 37,299 112,383 75,85 169,128 282,128 113,0 207,-43 282,-128 74,-85 112,-215 112,-390 0,-165 -38,-290 -113,-374 -75,-85 -169,-128 -281,-128 -113,0 -207,42 -282,127 -75,84 -112,212 -112,382z"/>
   <path id="6" class="fil3" d="M13631 5050l0 -1337 203 0 0 205c52,-95 100,-157 144,-187 45,-31 93,-46 146,-46 76,0 154,24 233,72l-81 209c-55,-31 -110,-47 -165,-47 -49,0 -93,15 -132,45 -39,30 -67,71 -84,124 -25,80 -38,168 -38,264l0 698 -226 0z"/>
  </g>
 </g>
</svg>
